<?xml version="1.0" encoding="iso-8859-1"?>
<!-- Generator: Adobe Illustrator 22.0.0, SVG Export Plug-In . SVG Version: 6.00 Build 0)  -->
<svg version="1.1" id="Layer_1" xmlns="http://www.w3.org/2000/svg" xmlns:xlink="http://www.w3.org/1999/xlink" x="0px" y="0px"
	 viewBox="0 0 260 175" style="enable-background:new 0 0 260 175;" xml:space="preserve">
<g>
	<path style="fill:#F76D6D;" d="M251.875,0H8.125C3.638,0,0,3.638,0,8.125V17h260V8.125C260,3.638,256.362,0,251.875,0z"/>
</g>
<g>
	<path style="fill:#E5E5E5;" d="M0,170.792C0,173.116,1.884,175,4.208,175h251.583c2.324,0,4.208-1.884,4.208-4.208V17H0V170.792z"
		/>
</g>
<g>
	<g>
		<path style="fill:#FFFFFF;" d="M234.353,126.769h-56.614c-1.286,0-2.329-1.042-2.329-2.329V67.826
			c0-1.286,1.042-2.329,2.329-2.329h56.614c1.286,0,2.329,1.042,2.329,2.329v56.614
			C236.682,125.726,235.639,126.769,234.353,126.769z"/>
	</g>
</g>
<rect x="23.317" y="30.667" style="fill:#ADADAD;" width="107.328" height="1.94"/>
<rect x="23.317" y="37.456" style="fill:#ADADAD;" width="213.365" height="1.94"/>
<rect x="23.317" y="44.245" style="fill:#ADADAD;" width="213.365" height="1.94"/>
<rect x="23.317" y="51.033" style="fill:#ADADAD;" width="213.365" height="1.94"/>
<rect x="23.317" y="57.822" style="fill:#ADADAD;" width="213.365" height="1.94"/>
<rect x="181.515" y="75.192" style="fill:#ADADAD;stroke:#FFFFFF;stroke-miterlimit:10;" width="31.51" height="1.94"/>
<rect x="181.515" y="81.98" style="fill:#ADADAD;stroke:#FFFFFF;stroke-miterlimit:10;" width="48.651" height="1.94"/>
<rect x="181.515" y="88.769" style="fill:#ADADAD;stroke:#FFFFFF;stroke-miterlimit:10;" width="48.651" height="1.94"/>
<rect x="181.515" y="95.557" style="fill:#ADADAD;stroke:#FFFFFF;stroke-miterlimit:10;" width="48.651" height="1.94"/>
<rect x="181.515" y="102.349" style="fill:#ADADAD;stroke:#FFFFFF;stroke-miterlimit:10;" width="43.391" height="1.94"/>
<rect x="181.515" y="109.137" style="fill:#ADADAD;stroke:#FFFFFF;stroke-miterlimit:10;" width="48.651" height="1.94"/>
<rect x="181.515" y="115.926" style="fill:#ADADAD;stroke:#FFFFFF;stroke-miterlimit:10;" width="48.651" height="1.94"/>
<rect x="23.317" y="71.401" style="fill:#ADADAD;" width="144.688" height="1.94"/>
<rect x="23.317" y="64.611" style="fill:#ADADAD;" width="145.933" height="1.94"/>
<rect x="23.317" y="78.19" style="fill:#ADADAD;" width="145.933" height="1.94"/>
<rect x="23.317" y="84.979" style="fill:#ADADAD;" width="139.143" height="1.94"/>
<rect x="23.317" y="98.558" style="fill:#ADADAD;" width="142.23" height="1.94"/>
<rect x="23.317" y="91.768" style="fill:#ADADAD;" width="145.933" height="1.94"/>
<rect x="23.317" y="105.347" style="fill:#ADADAD;" width="145.933" height="1.94"/>
<rect x="23.317" y="112.136" style="fill:#ADADAD;" width="142.483" height="1.94"/>
<rect x="23.317" y="125.715" style="fill:#ADADAD;" width="142.987" height="1.94"/>
<rect x="23.317" y="118.925" style="fill:#ADADAD;" width="136.058" height="1.94"/>
<rect x="23.317" y="132.504" style="fill:#ADADAD;" width="213.365" height="1.94"/>
<rect x="23.317" y="139.293" style="fill:#ADADAD;" width="213.365" height="1.94"/>
<rect x="23.317" y="152.872" style="fill:#ADADAD;" width="213.365" height="1.94"/>
<rect x="23.317" y="146.082" style="fill:#ADADAD;" width="213.365" height="1.94"/>
<rect x="23.317" y="159.662" style="fill:#ADADAD;" width="213.365" height="1.94"/>
</svg>
