<?xml version="1.0" encoding="iso-8859-1"?>
<!-- Generator: Adobe Illustrator 22.0.0, SVG Export Plug-In . SVG Version: 6.00 Build 0)  -->
<svg version="1.1" id="Layer_1" xmlns="http://www.w3.org/2000/svg" xmlns:xlink="http://www.w3.org/1999/xlink" x="0px" y="0px"
	 viewBox="0 0 260 175" style="enable-background:new 0 0 260 175;" xml:space="preserve">
<g>
	<path style="fill:#F76D6D;" d="M251.875,0H8.125C3.638,0,0,3.638,0,8.125V17h260V8.125C260,3.638,256.362,0,251.875,0z"/>
</g>
<g>
	<path style="fill:#E5E5E5;" d="M0,170.792C0,173.116,1.884,175,4.208,175h251.583c2.324,0,4.208-1.884,4.208-4.208V17H0V170.792z"
		/>
</g>
<rect x="40" y="39" style="fill:#FFFFFF;" width="182" height="29"/>
<circle style="fill:#ADADAD;" cx="56.5" cy="53.5" r="8.5"/>
<rect x="70" y="49" style="fill:#ADADAD;" width="121" height="2"/>
<rect x="70" y="56" style="fill:#ADADAD;" width="121" height="2"/>
<rect x="40" y="69" style="fill:#FFFFFF;" width="182" height="29"/>
<circle style="fill:#ADADAD;" cx="56.5" cy="83.5" r="8.5"/>
<rect x="70" y="79" style="fill:#ADADAD;" width="121" height="2"/>
<rect x="70" y="86" style="fill:#ADADAD;" width="121" height="2"/>
<rect x="40" y="99" style="fill:#FFFFFF;" width="182" height="29"/>
<circle style="fill:#ADADAD;" cx="56.5" cy="113.5" r="8.5"/>
<rect x="70" y="109" style="fill:#ADADAD;" width="121" height="2"/>
<rect x="70" y="116" style="fill:#ADADAD;" width="121" height="2"/>
<rect x="40" y="129" style="fill:#FFFFFF;" width="182" height="29"/>
<circle style="fill:#ADADAD;" cx="56.5" cy="143.5" r="8.5"/>
<rect x="70" y="139" style="fill:#ADADAD;" width="121" height="2"/>
<rect x="70" y="146" style="fill:#ADADAD;" width="121" height="2"/>
</svg>
